# xmcd
#
# Track frame offsets:
#	150
#	12885
#	26184
#	40706
#	52353
#	61120
#	75473
#	88247
#	101543
#	113634
#	126284
#	139098
#	151977
#	165236
#	178042
#	189217
#	201357
#	215304
#	228017
#	241481
#
# Disc length: 3408
#
# Revision: 3
# Processed by: cddbd v1.5.1PL0 Copyright (c) Steve Scherf et al.
# Submitted via: audiograbber 1.80
# Normalized: r1:TRMNUM;r2:DSETVAR1,TDELIM( - )
#
DISCID=030d4e14
DTITLE=Various Artist - Riding The Range
DYEAR=1900
DGENRE=
TTITLE0=Roy Rogers - Blue Shadows On the Trail
TTITLE1=Rex Allen - Teardrops In My Heart
TTITLE2=Tex Ritter - Rye Whiskey
TTITLE3=The Girls Of The Golden West - My Love Is A Rider
TTITLE4=Carson Robison's Buckaroos - Carry Me Back To The Lone Prairie
TTITLE5=Jules Verne Allen - Little Joe The Wrangler
TTITLE6=The Sons Of The Pioneers - Way Out There
TTITLE7=Jimmy Wakely - Roll Along Kentucky Moon
TTITLE8=The Sons Of The Pioneers - Tumblin' Tumbleweeds
TTITLE9=Tex Ritter - Jingle, Jingle, Jingle
TTITLE10=Roy Rogers - Don't Fence Me In
TTITLE11=Eddie Dean - On The Banks Of The Sunny San Juan
TTITLE12=Bob Wills and His Texas Playboys - Dusky Skies
TTITLE13=Ray Whitley - Wah Hoo
TTITLE14=Rosalie Allen - Wide Rolling Plains
TTITLE15=Louise Massey and The Westerners - My Adobe Hacienda
TTITLE16=Wilf Carter Montana - There's A Love Knot In My Lariat
TTITLE17=The Sons Of The Pioneers - Tumbleweed Trail
TTITLE18=Jimmy Wakely - Song Of The Sierras
TTITLE19=Eddy Arnold - The Cattle Call
EXTD=
EXTT0=
EXTT1=
EXTT2=
EXTT3=
EXTT4=
EXTT5=
EXTT6=
EXTT7=
EXTT8=
EXTT9=
EXTT10=
EXTT11=
EXTT12=
EXTT13=
EXTT14=
EXTT15=
EXTT16=
EXTT17=
EXTT18=
EXTT19=
PLAYORDER=
